<svg xmlns="http://www.w3.org/2000/svg" viewBox="0 0 200 260" width="100%" height="100%">
  <defs>
    <filter id="silhouette-glow">
      <feGaussianBlur stdDeviation="1.5" result="blur"/>
      <feMerge>
        <feMergeNode in="blur"/>
        <feMergeNode in="SourceGraphic"/>
      </feMerge>
    </filter>
  </defs>
  <g filter="url(#silhouette-glow)">
    
<circle cx="100" cy="35" r="18" fill="#FFF" opacity="0.9"/>    <path d="M 82 30 Q 100 22 118 30" stroke="#FFD700" strokeWidth="3" fill="none" opacity="0.8"/>    <rect x="93" y="50" width="14" height="10" fill="#FFF" opacity="0.8"/>    <path d="M 80 58 L 120 58 L 125 120 L 75 120 Z" fill="#FFF" opacity="0.85"/>    <path d="M 97 58 L 103 58 L 103 120 L 97 120 Z" fill="none" stroke="#FFD700" strokeWidth="1" opacity="0.5"/>    <text x="100" y="95" textAnchor="middle" fill="#FFD700" fontSize="24" fontWeight="bold" fontFamily="Arial" opacity="0.6">30</text>    <path d="M 120 65 L 155 40 L 175 15" stroke="#FFF" strokeWidth="8" strokeLinecap="round" fill="none" opacity="0.85"/>    <path d="M 80 65 L 55 50 L 40 35" stroke="#FFF" strokeWidth="7" strokeLinecap="round" fill="none" opacity="0.7"/>    <circle cx="178" cy="12" r="5" fill="#FFF" opacity="0.85"/>    <circle cx="185" cy="5" r="10" fill="none" stroke="#FFD700" strokeWidth="2" opacity="0.9"/>    <path d="M 185 -5 A 10 10 0 0 1 195 5" stroke="#FFD700" strokeWidth="1" fill="none" opacity="0.6"/>    <path d="M 185 15 A 10 10 0 0 1 175 5" stroke="#FFD700" strokeWidth="1" fill="none" opacity="0.6"/>    <path d="M 85 120 L 65 175 L 55 210" stroke="#FFF" strokeWidth="8" strokeLinecap="round" fill="none" opacity="0.85"/>    <path d="M 105 120 L 125 160 L 140 180" stroke="#FFF" strokeWidth="8" strokeLinecap="round" fill="none" opacity="0.7"/>    <path d="M 45 210 L 65 210 L 65 220 L 45 220 Z" fill="#FFD700" opacity="0.5"/>    <path d="M 130 180 L 150 180 L 150 190 L 130 190 Z" fill="#FFD700" opacity="0.4"/>    <path d="M 60 220 Q 80 200 100 120 Q 120 80 180 5" stroke="#FFF" strokeWidth="1" strokeDasharray="4,4" fill="none" opacity="0.2"/>    <line x1="190" y1="0" x2="195" y2="-5" stroke="#FFD700" strokeWidth="1" opacity="0.3"/>    <line x1="188" y1="-2" x2="192" y2="-8" stroke="#FFD700" strokeWidth="1" opacity="0.2"/>
  </g>
</svg>