<svg xmlns="http://www.w3.org/2000/svg" viewBox="0 0 200 260" width="100%" height="100%">
  <defs>
    <filter id="silhouette-glow">
      <feGaussianBlur stdDeviation="1.5" result="blur"/>
      <feMerge>
        <feMergeNode in="blur"/>
        <feMergeNode in="SourceGraphic"/>
      </feMerge>
    </filter>
  </defs>
  <g filter="url(#silhouette-glow)">
    
<circle cx="95" cy="25" r="17" fill="#FFF" opacity="0.9"/>    <path d="M 78 20 Q 95 12 112 20" stroke="#FFD700" strokeWidth="3" fill="none" opacity="0.8"/>    <path d="M 88 48 L 108 45 L 115 110 L 75 110 Z" fill="#FFF" opacity="0.85"/>    <path d="M 95 48 L 101 48 L 101 110 L 95 110 Z" fill="none" stroke="#FFD700" strokeWidth="1" opacity="0.5"/>    <path d="M 108 55 L 140 25 L 160 0 L 170 -15" stroke="#FFF" strokeWidth="8" strokeLinecap="round" fill="none" opacity="0.85"/>    <circle cx="172" cy="-18" r="5" fill="#FFF" opacity="0.85"/>    <path d="M 88 55 L 60 35 L 45 20" stroke="#FFF" strokeWidth="6" strokeLinecap="round" fill="none" opacity="0.6"/>    <circle cx="168" cy="-30" r="9" fill="none" stroke="#FFD700" strokeWidth="2" opacity="0.9"/>    <path d="M 168 -39 A 9 9 0 0 1 177 -30" stroke="#FFD700" strokeWidth="1" fill="none" opacity="0.6"/>    <path d="M 168 -21 A 9 9 0 0 1 159 -30" stroke="#FFD700" strokeWidth="1" fill="none" opacity="0.6"/>    <line x1="158" y1="-38" x2="180" y2="-38" stroke="#FFF" strokeWidth="3" opacity="0.5"/>    <path d="M 158 -38 L 155 -30 L 160 -25" stroke="#FFF" strokeWidth="1" fill="none" opacity="0.3"/>    <path d="M 180 -38 L 183 -30 L 178 -25" stroke="#FFF" strokeWidth="1" fill="none" opacity="0.3"/>    <path d="M 82 110 L 45 170 L 30 210" stroke="#FFF" strokeWidth="8" strokeLinecap="round" fill="none" opacity="0.85"/>    <path d="M 105 110 L 130 170 L 150 210" stroke="#FFF" strokeWidth="8" strokeLinecap="round" fill="none" opacity="0.85"/>    <path d="M 20 210 L 40 210 L 40 222 L 20 222 Z" fill="#FFD700" opacity="0.5"/>    <path d="M 140 210 L 160 210 L 160 222 L 140 222 Z" fill="#FFD700" opacity="0.5"/>    <path d="M 170 -20 L 185 -25" stroke="#FFD700" strokeWidth="1.5" fill="none" opacity="0.3"/>    <path d="M 155 -10 L 165 -15" stroke="#FFD700" strokeWidth="1" fill="none" opacity="0.2"/>    <path d="M 130 -30 Q 150 -40 170 -35" stroke="#FFF" strokeWidth="1" strokeDasharray="3,3" fill="none" opacity="0.15"/>
  </g>
</svg>