<svg xmlns="http://www.w3.org/2000/svg" viewBox="0 0 200 260" width="100%" height="100%">
  <defs>
    <filter id="silhouette-glow">
      <feGaussianBlur stdDeviation="1.5" result="blur"/>
      <feMerge>
        <feMergeNode in="blur"/>
        <feMergeNode in="SourceGraphic"/>
      </feMerge>
    </filter>
  </defs>
  <g filter="url(#silhouette-glow)">
    
<circle cx="100" cy="22" r="17" fill="#FFF" opacity="0.9"/>    <path d="M 83 17 Q 100 10 117 17" stroke="#FFD700" strokeWidth="3" fill="none" opacity="0.8"/>    <path d="M 88 40 L 112 40 L 118 108 L 82 108 Z" fill="#FFF" opacity="0.85"/>    <path d="M 97 40 L 103 40 L 103 108 L 97 108 Z" fill="none" stroke="#FFD700" strokeWidth="1" opacity="0.5"/>    <path d="M 110 48 L 140 15 L 155 -10" stroke="#FFF" strokeWidth="8" strokeLinecap="round" fill="none" opacity="0.85"/>    <path d="M 90 48 L 60 15 L 45 -10" stroke="#FFF" strokeWidth="8" strokeLinecap="round" fill="none" opacity="0.85"/>    <circle cx="157" cy="-13" r="5" fill="#FFF" opacity="0.85"/>    <circle cx="43" cy="-13" r="5" fill="#FFF" opacity="0.85"/>    <circle cx="100" cy="-20" r="10" fill="none" stroke="#FFD700" strokeWidth="2" opacity="0.7"/>    <path d="M 85 -30 L 90 -25 L 85 -20" stroke="#FFD700" strokeWidth="1.5" fill="none" opacity="0.4"/>    <path d="M 115 -30 L 110 -25 L 115 -20" stroke="#FFD700" strokeWidth="1.5" fill="none" opacity="0.4"/>    <path d="M 95 -35 L 100 -28 L 105 -35" stroke="#FFD700" strokeWidth="1" fill="none" opacity="0.3"/>    <path d="M 90 108 L 55 165 L 40 210" stroke="#FFF" strokeWidth="8" strokeLinecap="round" fill="none" opacity="0.85"/>    <path d="M 110 108 L 145 165 L 160 210" stroke="#FFF" strokeWidth="8" strokeLinecap="round" fill="none" opacity="0.85"/>    <path d="M 30 210 L 50 210 L 50 222 L 30 222 Z" fill="#FFD700" opacity="0.5"/>    <path d="M 150 210 L 170 210 L 170 222 L 150 222 Z" fill="#FFD700" opacity="0.5"/>    <path d="M 40 -20 L 30 -25 L 35 -15" stroke="#FFF" strokeWidth="1" fill="none" opacity="0.2"/>    <path d="M 160 -20 L 170 -25 L 165 -15" stroke="#FFF" strokeWidth="1" fill="none" opacity="0.2"/>    <path d="M 50 -10 L 40 -15" stroke="#FFD700" strokeWidth="1" fill="none" opacity="0.2"/>    <path d="M 150 -10 L 160 -15" stroke="#FFD700" strokeWidth="1" fill="none" opacity="0.2"/>
  </g>
</svg>